# xmcd
#
# Track frame offsets:
#	150
#	17195
#	31666
#	44116
#	61066
#	76356
#	94279
#	118140
#	151048
#	167836
#	188539
#	205139
#	224534
#	238546
#	255509
#	268895
#	286876
#	309763
#	328328
#	346521
#
# Disc length: 4799 seconds
#
# Revision: 0
# Processed by: cddbd v1.4PL0 Copyright (c) Steve Scherf et al.
# Submitted via: EasyCDDAExtractor 4.5.0.2
#
DISCID=1512bd14
DTITLE=Bob Marley and The Wailers
DYEAR=1900
DGENRE=
TTITLE0=I Know A Place
TTITLE1=Iron Lion Zion
TTITLE2=Buffalo Soldier
TTITLE3=Sti It Up
TTITLE4=Get Up, Stand Up
TTITLE5=I Shot The Sheriff
TTITLE6=Lively Yourself
TTITLE7=No Woman, No Cry (Live)
TTITLE8=Roots, Rocks, Reggae
TTITLE9=Exodus
TTITLE10=Jamming
TTITLE11=Waiting In Vain
TTITLE12=Three Little Birds
TTITLE13=Turn Your Lights Down Low
TTITLE14=One Love/People Get Ready
TTITLE15=Is This Love
TTITLE16=Sun Is Shining
TTITLE17=So Much Trouble In The World
TTITLE18=Could You Be Loved
TTITLE19=Redemption Song (Band Version)
EXTD=
EXTT0=
EXTT1=
EXTT2=
EXTT3=
EXTT4=
EXTT5=
EXTT6=
EXTT7=
EXTT8=
EXTT9=
EXTT10=
EXTT11=
EXTT12=
EXTT13=
EXTT14=
EXTT15=
EXTT16=
EXTT17=
EXTT18=
EXTT19=
PLAYORDER=
